<svg width="25" height="25" viewBox="0 0 25 25" fill="none" xmlns="http://www.w3.org/2000/svg">
<path d="M16.0066 12.2745V3.73211C16.0066 1.65872 14.3479 0 12.2745 0H3.73211C1.65872 0 0 1.65872 0 3.73211V12.2745C0 14.3479 1.65872 16.0066 3.73211 16.0066H12.2745C14.3479 16.0066 16.0066 14.3479 16.0066 12.2745ZM0.870825 12.2745V3.73211C0.870825 2.11486 2.15633 0.829358 3.77358 0.829358H12.316C13.9332 0.829358 15.2187 2.11486 15.2187 3.73211V12.2745C15.2187 13.8917 13.9332 15.1773 12.316 15.1773H3.73211C2.15633 15.1773 0.829358 13.8917 0.870825 12.2745Z" fill="white"/>
<path d="M12.0256 24.3001H20.568C22.6414 24.3001 24.3001 22.6414 24.3001 20.568V12.0256C24.3001 9.95217 22.6414 8.29346 20.568 8.29346H19.3239V9.12282H20.568C22.1852 9.12282 23.4707 10.4083 23.4707 12.0256V20.568C23.4707 22.1852 22.1852 23.4707 20.568 23.4707H12.0256C10.4083 23.4707 9.12282 22.1852 9.12282 20.568V19.3239H8.29346V20.568C8.29346 22.5999 9.95217 24.3001 12.0256 24.3001Z" fill="white"/>
</svg>
